
<svg xmlns="http://www.w3.org/2000/svg" width="1080" height="1250">
  <!-- Define the styles for the calendar -->
  <style>
    .header {
      font-family: Arial, sans-serif;
      font-size: 24px;
      text-anchor: middle;
      fill: black;
    }
    
    .college {
      font-family: sans-serif;
      font-size: 40px;
      text-anchor: middle;
      fill: black;
    }
    
    .title {
      font-family: sans-serif;
      font-size: 30px;
      text-anchor: middle;
      fill: black;
    }
    
    .tile {
      font-family: sans-serif;
      font-size: 23px;
      text-anchor: middle;
      fill: black;
    }
    
    .legend {
      font-family: sans-serif;
      font-size: 16px;
      text-anchor: end;
    }
    
    .holiday {
      font-family: sans-serif;
      font-size: 16px;
      fill: black;
    }
    
    .date {
      font-family: sans-serif;
      font-size: 16px;
      text-anchor: middle;
      fill: black;
      font-weight:bold;
    }
    
    .day {
      font-family: Arial, sans-serif;
      font-size: 16px;
      text-anchor: middle;
    }
  </style>

  <!-- Draw the calendar -->
<image href="iscm.jpg" x="60" y="50" width="105" height="105" /><text  x="550" y="85" class="college" font-weight="bold">The Institute of Science, Mumbai</text><text  x="550" y="135" class="title" font-weight="bold">Academic Calendar 2023-24</text><svg x="50" y="180"><rect x="10" y="10" width="310" height="45" rx="10" ry="10" fill="lightblue" />
  <text x="170" y="40" class="header">January 2023</text>
  <!-- Days of the week -->
  <text font-family="sans-serif" text-anchor="middle" x="30" y="80" font-size="12px" fill="red">Sun</text>
  <text font-family="sans-serif" text-anchor="middle" x="75" y="80"  font-size="12px">Mon</text>
  <text font-family="sans-serif" text-anchor="middle" x="120" y="80" font-size="12px">Tue</text>
  <text font-family="sans-serif" text-anchor="middle" x="165" y="80" font-size="12px">Wed</text>
  <text font-family="sans-serif" text-anchor="middle" x="210" y="80"  font-size="12px">Thu</text>
  <text font-family="sans-serif" text-anchor="middle" x="255" y="80"  font-size="12px">Fri</text>
  <text font-family="sans-serif" text-anchor="middle" x="300" y="80"  font-size="12px">Sat</text><circle cx="300" cy="114" r="15" fill="none" stroke="black" stroke-width="1"/><text x="300" y="120" class="day" fill="black" font-weight="bold">1</text><circle cx="30" cy="154" r="15" fill="blue" stroke="black" stroke-width="1"/><text x="30" y="160" class="day" fill="red" font-weight="bold">2</text><circle cx="75" cy="154" r="15" fill="none" stroke="black" stroke-width="1"/><text x="75" y="160" class="day" fill="black" font-weight="bold">3</text><circle cx="120" cy="154" r="15" fill="none" stroke="black" stroke-width="1"/><text x="120" y="160" class="day" fill="black" font-weight="bold">4</text><circle cx="165" cy="154" r="15" fill="none" stroke="black" stroke-width="1"/><text x="165" y="160" class="day" fill="black" font-weight="bold">5</text><circle cx="210" cy="154" r="15" fill="none" stroke="black" stroke-width="1"/><text x="210" y="160" class="day" fill="black" font-weight="bold">6</text><circle cx="255" cy="154" r="15" fill="none" stroke="black" stroke-width="1"/><text x="255" y="160" class="day" fill="black" font-weight="bold">7</text><circle cx="300" cy="154" r="15" fill="none" stroke="black" stroke-width="1"/><text x="300" y="160" class="day" fill="black" font-weight="bold">8</text><circle cx="30" cy="194" r="15" fill="none" stroke="black" stroke-width="1"/><text x="30" y="200" class="day" fill="red" font-weight="bold">9</text><circle cx="75" cy="194" r="15" fill="none" stroke="black" stroke-width="1"/><text x="75" y="200" class="day" fill="black" font-weight="bold">10</text><circle cx="120" cy="194" r="15" fill="none" stroke="black" stroke-width="1"/><text x="120" y="200" class="day" fill="black" font-weight="bold">11</text><circle cx="165" cy="194" r="15" fill="none" stroke="black" stroke-width="1"/><text x="165" y="200" class="day" fill="black" font-weight="bold">12</text><circle cx="210" cy="194" r="15" fill="none" stroke="black" stroke-width="1"/><text x="210" y="200" class="day" fill="black" font-weight="bold">13</text><circle cx="255" cy="194" r="15" fill="none" stroke="black" stroke-width="1"/><text x="255" y="200" class="day" fill="black" font-weight="bold">14</text><circle cx="300" cy="194" r="15" fill="none" stroke="black" stroke-width="1"/><text x="300" y="200" class="day" fill="black" font-weight="bold">15</text><circle cx="30" cy="234" r="15" fill="none" stroke="black" stroke-width="1"/><text x="30" y="240" class="day" fill="red" font-weight="bold">16</text><circle cx="75" cy="234" r="15" fill="none" stroke="black" stroke-width="1"/><text x="75" y="240" class="day" fill="black" font-weight="bold">17</text><circle cx="120" cy="234" r="15" fill="none" stroke="black" stroke-width="1"/><text x="120" y="240" class="day" fill="black" font-weight="bold">18</text><circle cx="165" cy="234" r="15" fill="none" stroke="black" stroke-width="1"/><text x="165" y="240" class="day" fill="black" font-weight="bold">19</text><circle cx="210" cy="234" r="15" fill="none" stroke="black" stroke-width="1"/><text x="210" y="240" class="day" fill="black" font-weight="bold">20</text><circle cx="255" cy="234" r="15" fill="none" stroke="black" stroke-width="1"/><text x="255" y="240" class="day" fill="black" font-weight="bold">21</text><circle cx="300" cy="234" r="15" fill="none" stroke="black" stroke-width="1"/><text x="300" y="240" class="day" fill="black" font-weight="bold">22</text><circle cx="30" cy="274" r="15" fill="none" stroke="black" stroke-width="1"/><text x="30" y="280" class="day" fill="red" font-weight="bold">23</text><circle cx="75" cy="274" r="15" fill="none" stroke="black" stroke-width="1"/><text x="75" y="280" class="day" fill="black" font-weight="bold">24</text><circle cx="120" cy="274" r="15" fill="none" stroke="black" stroke-width="1"/><text x="120" y="280" class="day" fill="black" font-weight="bold">25</text><circle cx="165" cy="274" r="15" fill="none" stroke="black" stroke-width="1"/><text x="165" y="280" class="day" fill="black" font-weight="bold">26</text><circle cx="210" cy="274" r="15" fill="none" stroke="black" stroke-width="1"/><text x="210" y="280" class="day" fill="black" font-weight="bold">27</text><circle cx="255" cy="274" r="15" fill="none" stroke="black" stroke-width="1"/><text x="255" y="280" class="day" fill="black" font-weight="bold">28</text><circle cx="300" cy="274" r="15" fill="none" stroke="black" stroke-width="1"/><text x="300" y="280" class="day" fill="black" font-weight="bold">29</text><circle cx="30" cy="314" r="15" fill="none" stroke="black" stroke-width="1"/><text x="30" y="320" class="day" fill="red" font-weight="bold">30</text><circle cx="75" cy="314" r="15" fill="none" stroke="black" stroke-width="1"/><text x="75" y="320" class="day" fill="black" font-weight="bold">31</text></svg><svg x="380" y="180"><rect x="10" y="10" width="310" height="45" rx="10" ry="10" fill="lightblue" />
  <text x="170" y="40" class="header">February 2023</text>
  <!-- Days of the week -->
  <text font-family="sans-serif" text-anchor="middle" x="30" y="80" font-size="12px" fill="red">Sun</text>
  <text font-family="sans-serif" text-anchor="middle" x="75" y="80"  font-size="12px">Mon</text>
  <text font-family="sans-serif" text-anchor="middle" x="120" y="80" font-size="12px">Tue</text>
  <text font-family="sans-serif" text-anchor="middle" x="165" y="80" font-size="12px">Wed</text>
  <text font-family="sans-serif" text-anchor="middle" x="210" y="80"  font-size="12px">Thu</text>
  <text font-family="sans-serif" text-anchor="middle" x="255" y="80"  font-size="12px">Fri</text>
  <text font-family="sans-serif" text-anchor="middle" x="300" y="80"  font-size="12px">Sat</text><circle cx="120" cy="114" r="15" fill="none" stroke="black" stroke-width="1"/><text x="120" y="120" class="day" fill="black" font-weight="bold">1</text><circle cx="165" cy="114" r="15" fill="none" stroke="black" stroke-width="1"/><text x="165" y="120" class="day" fill="black" font-weight="bold">2</text><circle cx="210" cy="114" r="15" fill="none" stroke="black" stroke-width="1"/><text x="210" y="120" class="day" fill="black" font-weight="bold">3</text><circle cx="255" cy="114" r="15" fill="none" stroke="black" stroke-width="1"/><text x="255" y="120" class="day" fill="black" font-weight="bold">4</text><circle cx="300" cy="114" r="15" fill="none" stroke="black" stroke-width="1"/><text x="300" y="120" class="day" fill="black" font-weight="bold">5</text><circle cx="30" cy="154" r="15" fill="none" stroke="black" stroke-width="1"/><text x="30" y="160" class="day" fill="red" font-weight="bold">6</text><circle cx="75" cy="154" r="15" fill="none" stroke="black" stroke-width="1"/><text x="75" y="160" class="day" fill="black" font-weight="bold">7</text><circle cx="120" cy="154" r="15" fill="none" stroke="black" stroke-width="1"/><text x="120" y="160" class="day" fill="black" font-weight="bold">8</text><circle cx="165" cy="154" r="15" fill="none" stroke="black" stroke-width="1"/><text x="165" y="160" class="day" fill="black" font-weight="bold">9</text><circle cx="210" cy="154" r="15" fill="none" stroke="black" stroke-width="1"/><text x="210" y="160" class="day" fill="black" font-weight="bold">10</text><circle cx="255" cy="154" r="15" fill="none" stroke="black" stroke-width="1"/><text x="255" y="160" class="day" fill="black" font-weight="bold">11</text><circle cx="300" cy="154" r="15" fill="none" stroke="black" stroke-width="1"/><text x="300" y="160" class="day" fill="black" font-weight="bold">12</text><circle cx="30" cy="194" r="15" fill="none" stroke="black" stroke-width="1"/><text x="30" y="200" class="day" fill="red" font-weight="bold">13</text><circle cx="75" cy="194" r="15" fill="none" stroke="black" stroke-width="1"/><text x="75" y="200" class="day" fill="black" font-weight="bold">14</text><circle cx="120" cy="194" r="15" fill="none" stroke="black" stroke-width="1"/><text x="120" y="200" class="day" fill="black" font-weight="bold">15</text><circle cx="165" cy="194" r="15" fill="none" stroke="black" stroke-width="1"/><text x="165" y="200" class="day" fill="black" font-weight="bold">16</text><circle cx="210" cy="194" r="15" fill="none" stroke="black" stroke-width="1"/><text x="210" y="200" class="day" fill="black" font-weight="bold">17</text><circle cx="255" cy="194" r="15" fill="none" stroke="black" stroke-width="1"/><text x="255" y="200" class="day" fill="black" font-weight="bold">18</text><circle cx="300" cy="194" r="15" fill="none" stroke="black" stroke-width="1"/><text x="300" y="200" class="day" fill="black" font-weight="bold">19</text><circle cx="30" cy="234" r="15" fill="none" stroke="black" stroke-width="1"/><text x="30" y="240" class="day" fill="red" font-weight="bold">20</text><circle cx="75" cy="234" r="15" fill="none" stroke="black" stroke-width="1"/><text x="75" y="240" class="day" fill="black" font-weight="bold">21</text><circle cx="120" cy="234" r="15" fill="none" stroke="black" stroke-width="1"/><text x="120" y="240" class="day" fill="black" font-weight="bold">22</text><circle cx="165" cy="234" r="15" fill="none" stroke="black" stroke-width="1"/><text x="165" y="240" class="day" fill="black" font-weight="bold">23</text><circle cx="210" cy="234" r="15" fill="none" stroke="black" stroke-width="1"/><text x="210" y="240" class="day" fill="black" font-weight="bold">24</text><circle cx="255" cy="234" r="15" fill="none" stroke="black" stroke-width="1"/><text x="255" y="240" class="day" fill="black" font-weight="bold">25</text><circle cx="300" cy="234" r="15" fill="none" stroke="black" stroke-width="1"/><text x="300" y="240" class="day" fill="black" font-weight="bold">26</text><circle cx="30" cy="274" r="15" fill="none" stroke="black" stroke-width="1"/><text x="30" y="280" class="day" fill="red" font-weight="bold">27</text><circle cx="75" cy="274" r="15" fill="none" stroke="black" stroke-width="1"/><text x="75" y="280" class="day" fill="black" font-weight="bold">28</text></svg><svg x="710" y="180"><rect x="10" y="10" width="310" height="45" rx="10" ry="10" fill="lightblue" />
  <text x="170" y="40" class="header">March 2023</text>
  <!-- Days of the week -->
  <text font-family="sans-serif" text-anchor="middle" x="30" y="80" font-size="12px" fill="red">Sun</text>
  <text font-family="sans-serif" text-anchor="middle" x="75" y="80"  font-size="12px">Mon</text>
  <text font-family="sans-serif" text-anchor="middle" x="120" y="80" font-size="12px">Tue</text>
  <text font-family="sans-serif" text-anchor="middle" x="165" y="80" font-size="12px">Wed</text>
  <text font-family="sans-serif" text-anchor="middle" x="210" y="80"  font-size="12px">Thu</text>
  <text font-family="sans-serif" text-anchor="middle" x="255" y="80"  font-size="12px">Fri</text>
  <text font-family="sans-serif" text-anchor="middle" x="300" y="80"  font-size="12px">Sat</text><circle cx="120" cy="114" r="15" fill="none" stroke="black" stroke-width="1"/><text x="120" y="120" class="day" fill="black" font-weight="bold">1</text><circle cx="165" cy="114" r="15" fill="none" stroke="black" stroke-width="1"/><text x="165" y="120" class="day" fill="black" font-weight="bold">2</text><circle cx="210" cy="114" r="15" fill="yellow" stroke="black" stroke-width="1"/><text x="210" y="120" class="day" fill="red" font-weight="bold">3</text><circle cx="255" cy="114" r="15" fill="none" stroke="black" stroke-width="1"/><text x="255" y="120" class="day" fill="black" font-weight="bold">4</text><circle cx="300" cy="114" r="15" fill="none" stroke="black" stroke-width="1"/><text x="300" y="120" class="day" fill="black" font-weight="bold">5</text><circle cx="30" cy="154" r="15" fill="none" stroke="black" stroke-width="1"/><text x="30" y="160" class="day" fill="red" font-weight="bold">6</text><circle cx="75" cy="154" r="15" fill="none" stroke="black" stroke-width="1"/><text x="75" y="160" class="day" fill="black" font-weight="bold">7</text><circle cx="120" cy="154" r="15" fill="none" stroke="black" stroke-width="1"/><text x="120" y="160" class="day" fill="black" font-weight="bold">8</text><circle cx="165" cy="154" r="15" fill="none" stroke="black" stroke-width="1"/><text x="165" y="160" class="day" fill="black" font-weight="bold">9</text><circle cx="210" cy="154" r="15" fill="none" stroke="black" stroke-width="1"/><text x="210" y="160" class="day" fill="black" font-weight="bold">10</text><circle cx="255" cy="154" r="15" fill="none" stroke="black" stroke-width="1"/><text x="255" y="160" class="day" fill="black" font-weight="bold">11</text><circle cx="300" cy="154" r="15" fill="none" stroke="black" stroke-width="1"/><text x="300" y="160" class="day" fill="black" font-weight="bold">12</text><circle cx="30" cy="194" r="15" fill="none" stroke="black" stroke-width="1"/><text x="30" y="200" class="day" fill="red" font-weight="bold">13</text><circle cx="75" cy="194" r="15" fill="none" stroke="black" stroke-width="1"/><text x="75" y="200" class="day" fill="black" font-weight="bold">14</text><circle cx="120" cy="194" r="15" fill="none" stroke="black" stroke-width="1"/><text x="120" y="200" class="day" fill="black" font-weight="bold">15</text><circle cx="165" cy="194" r="15" fill="none" stroke="black" stroke-width="1"/><text x="165" y="200" class="day" fill="black" font-weight="bold">16</text><circle cx="210" cy="194" r="15" fill="none" stroke="black" stroke-width="1"/><text x="210" y="200" class="day" fill="black" font-weight="bold">17</text><circle cx="255" cy="194" r="15" fill="none" stroke="black" stroke-width="1"/><text x="255" y="200" class="day" fill="black" font-weight="bold">18</text><circle cx="300" cy="194" r="15" fill="none" stroke="black" stroke-width="1"/><text x="300" y="200" class="day" fill="black" font-weight="bold">19</text><circle cx="30" cy="234" r="15" fill="none" stroke="black" stroke-width="1"/><text x="30" y="240" class="day" fill="red" font-weight="bold">20</text><circle cx="75" cy="234" r="15" fill="none" stroke="black" stroke-width="1"/><text x="75" y="240" class="day" fill="black" font-weight="bold">21</text><circle cx="120" cy="234" r="15" fill="none" stroke="black" stroke-width="1"/><text x="120" y="240" class="day" fill="black" font-weight="bold">22</text><circle cx="165" cy="234" r="15" fill="none" stroke="black" stroke-width="1"/><text x="165" y="240" class="day" fill="black" font-weight="bold">23</text><circle cx="210" cy="234" r="15" fill="none" stroke="black" stroke-width="1"/><text x="210" y="240" class="day" fill="black" font-weight="bold">24</text><circle cx="255" cy="234" r="15" fill="none" stroke="black" stroke-width="1"/><text x="255" y="240" class="day" fill="black" font-weight="bold">25</text><circle cx="300" cy="234" r="15" fill="none" stroke="black" stroke-width="1"/><text x="300" y="240" class="day" fill="black" font-weight="bold">26</text><circle cx="30" cy="274" r="15" fill="none" stroke="black" stroke-width="1"/><text x="30" y="280" class="day" fill="red" font-weight="bold">27</text><circle cx="75" cy="274" r="15" fill="none" stroke="black" stroke-width="1"/><text x="75" y="280" class="day" fill="black" font-weight="bold">28</text><circle cx="120" cy="274" r="15" fill="none" stroke="black" stroke-width="1"/><text x="120" y="280" class="day" fill="black" font-weight="bold">29</text><circle cx="165" cy="274" r="15" fill="none" stroke="black" stroke-width="1"/><text x="165" y="280" class="day" fill="black" font-weight="bold">30</text><circle cx="210" cy="274" r="15" fill="none" stroke="black" stroke-width="1"/><text x="210" y="280" class="day" fill="black" font-weight="bold">31</text></svg><svg x="50" y="520"><rect x="10" y="10" width="310" height="45" rx="10" ry="10" fill="lightblue" />
  <text x="170" y="40" class="header">April 2023</text>
  <!-- Days of the week -->
  <text font-family="sans-serif" text-anchor="middle" x="30" y="80" font-size="12px" fill="red">Sun</text>
  <text font-family="sans-serif" text-anchor="middle" x="75" y="80"  font-size="12px">Mon</text>
  <text font-family="sans-serif" text-anchor="middle" x="120" y="80" font-size="12px">Tue</text>
  <text font-family="sans-serif" text-anchor="middle" x="165" y="80" font-size="12px">Wed</text>
  <text font-family="sans-serif" text-anchor="middle" x="210" y="80"  font-size="12px">Thu</text>
  <text font-family="sans-serif" text-anchor="middle" x="255" y="80"  font-size="12px">Fri</text>
  <text font-family="sans-serif" text-anchor="middle" x="300" y="80"  font-size="12px">Sat</text><circle cx="255" cy="114" r="15" fill="none" stroke="black" stroke-width="1"/><text x="255" y="120" class="day" fill="black" font-weight="bold">1</text><circle cx="300" cy="114" r="15" fill="none" stroke="black" stroke-width="1"/><text x="300" y="120" class="day" fill="black" font-weight="bold">2</text><circle cx="30" cy="154" r="15" fill="none" stroke="black" stroke-width="1"/><text x="30" y="160" class="day" fill="red" font-weight="bold">3</text><circle cx="75" cy="154" r="15" fill="none" stroke="black" stroke-width="1"/><text x="75" y="160" class="day" fill="black" font-weight="bold">4</text><circle cx="120" cy="154" r="15" fill="none" stroke="black" stroke-width="1"/><text x="120" y="160" class="day" fill="black" font-weight="bold">5</text><circle cx="165" cy="154" r="15" fill="none" stroke="black" stroke-width="1"/><text x="165" y="160" class="day" fill="black" font-weight="bold">6</text><circle cx="210" cy="154" r="15" fill="none" stroke="black" stroke-width="1"/><text x="210" y="160" class="day" fill="black" font-weight="bold">7</text><circle cx="255" cy="154" r="15" fill="none" stroke="black" stroke-width="1"/><text x="255" y="160" class="day" fill="black" font-weight="bold">8</text><circle cx="300" cy="154" r="15" fill="none" stroke="black" stroke-width="1"/><text x="300" y="160" class="day" fill="black" font-weight="bold">9</text><circle cx="30" cy="194" r="15" fill="none" stroke="black" stroke-width="1"/><text x="30" y="200" class="day" fill="red" font-weight="bold">10</text><circle cx="75" cy="194" r="15" fill="none" stroke="black" stroke-width="1"/><text x="75" y="200" class="day" fill="black" font-weight="bold">11</text><circle cx="120" cy="194" r="15" fill="none" stroke="black" stroke-width="1"/><text x="120" y="200" class="day" fill="black" font-weight="bold">12</text><circle cx="165" cy="194" r="15" fill="none" stroke="black" stroke-width="1"/><text x="165" y="200" class="day" fill="black" font-weight="bold">13</text><circle cx="210" cy="194" r="15" fill="none" stroke="black" stroke-width="1"/><text x="210" y="200" class="day" fill="black" font-weight="bold">14</text><circle cx="255" cy="194" r="15" fill="none" stroke="black" stroke-width="1"/><text x="255" y="200" class="day" fill="black" font-weight="bold">15</text><circle cx="300" cy="194" r="15" fill="none" stroke="black" stroke-width="1"/><text x="300" y="200" class="day" fill="black" font-weight="bold">16</text><circle cx="30" cy="234" r="15" fill="none" stroke="black" stroke-width="1"/><text x="30" y="240" class="day" fill="red" font-weight="bold">17</text><circle cx="75" cy="234" r="15" fill="none" stroke="black" stroke-width="1"/><text x="75" y="240" class="day" fill="black" font-weight="bold">18</text><circle cx="120" cy="234" r="15" fill="none" stroke="black" stroke-width="1"/><text x="120" y="240" class="day" fill="black" font-weight="bold">19</text><circle cx="165" cy="234" r="15" fill="yellow" stroke="black" stroke-width="1"/><text x="165" y="240" class="day" fill="black" font-weight="bold">20</text><circle cx="210" cy="234" r="15" fill="none" stroke="black" stroke-width="1"/><text x="210" y="240" class="day" fill="black" font-weight="bold">21</text><circle cx="255" cy="234" r="15" fill="none" stroke="black" stroke-width="1"/><text x="255" y="240" class="day" fill="black" font-weight="bold">22</text><circle cx="300" cy="234" r="15" fill="none" stroke="black" stroke-width="1"/><text x="300" y="240" class="day" fill="black" font-weight="bold">23</text><circle cx="30" cy="274" r="15" fill="none" stroke="black" stroke-width="1"/><text x="30" y="280" class="day" fill="red" font-weight="bold">24</text><circle cx="75" cy="274" r="15" fill="none" stroke="black" stroke-width="1"/><text x="75" y="280" class="day" fill="black" font-weight="bold">25</text><circle cx="120" cy="274" r="15" fill="none" stroke="black" stroke-width="1"/><text x="120" y="280" class="day" fill="black" font-weight="bold">26</text><circle cx="165" cy="274" r="15" fill="none" stroke="black" stroke-width="1"/><text x="165" y="280" class="day" fill="black" font-weight="bold">27</text><circle cx="210" cy="274" r="15" fill="none" stroke="black" stroke-width="1"/><text x="210" y="280" class="day" fill="black" font-weight="bold">28</text><circle cx="255" cy="274" r="15" fill="none" stroke="black" stroke-width="1"/><text x="255" y="280" class="day" fill="black" font-weight="bold">29</text><circle cx="300" cy="274" r="15" fill="none" stroke="black" stroke-width="1"/><text x="300" y="280" class="day" fill="black" font-weight="bold">30</text></svg><svg x="380" y="520"><rect x="10" y="10" width="310" height="45" rx="10" ry="10" fill="lightblue" />
  <text x="170" y="40" class="header">May 2023</text>
  <!-- Days of the week -->
  <text font-family="sans-serif" text-anchor="middle" x="30" y="80" font-size="12px" fill="red">Sun</text>
  <text font-family="sans-serif" text-anchor="middle" x="75" y="80"  font-size="12px">Mon</text>
  <text font-family="sans-serif" text-anchor="middle" x="120" y="80" font-size="12px">Tue</text>
  <text font-family="sans-serif" text-anchor="middle" x="165" y="80" font-size="12px">Wed</text>
  <text font-family="sans-serif" text-anchor="middle" x="210" y="80"  font-size="12px">Thu</text>
  <text font-family="sans-serif" text-anchor="middle" x="255" y="80"  font-size="12px">Fri</text>
  <text font-family="sans-serif" text-anchor="middle" x="300" y="80"  font-size="12px">Sat</text><circle cx="30" cy="114" r="15" fill="none" stroke="black" stroke-width="1"/><text x="30" y="120" class="day" fill="red" font-weight="bold">1</text><circle cx="75" cy="114" r="15" fill="none" stroke="black" stroke-width="1"/><text x="75" y="120" class="day" fill="black" font-weight="bold">2</text><circle cx="120" cy="114" r="15" fill="none" stroke="black" stroke-width="1"/><text x="120" y="120" class="day" fill="black" font-weight="bold">3</text><circle cx="165" cy="114" r="15" fill="none" stroke="black" stroke-width="1"/><text x="165" y="120" class="day" fill="black" font-weight="bold">4</text><circle cx="210" cy="114" r="15" fill="none" stroke="black" stroke-width="1"/><text x="210" y="120" class="day" fill="black" font-weight="bold">5</text><circle cx="255" cy="114" r="15" fill="none" stroke="black" stroke-width="1"/><text x="255" y="120" class="day" fill="black" font-weight="bold">6</text><circle cx="300" cy="114" r="15" fill="none" stroke="black" stroke-width="1"/><text x="300" y="120" class="day" fill="black" font-weight="bold">7</text><circle cx="30" cy="154" r="15" fill="none" stroke="black" stroke-width="1"/><text x="30" y="160" class="day" fill="red" font-weight="bold">8</text><circle cx="75" cy="154" r="15" fill="none" stroke="black" stroke-width="1"/><text x="75" y="160" class="day" fill="black" font-weight="bold">9</text><circle cx="120" cy="154" r="15" fill="none" stroke="black" stroke-width="1"/><text x="120" y="160" class="day" fill="black" font-weight="bold">10</text><circle cx="165" cy="154" r="15" fill="none" stroke="black" stroke-width="1"/><text x="165" y="160" class="day" fill="black" font-weight="bold">11</text><circle cx="210" cy="154" r="15" fill="none" stroke="black" stroke-width="1"/><text x="210" y="160" class="day" fill="black" font-weight="bold">12</text><circle cx="255" cy="154" r="15" fill="none" stroke="black" stroke-width="1"/><text x="255" y="160" class="day" fill="black" font-weight="bold">13</text><circle cx="300" cy="154" r="15" fill="none" stroke="black" stroke-width="1"/><text x="300" y="160" class="day" fill="black" font-weight="bold">14</text><circle cx="30" cy="194" r="15" fill="none" stroke="black" stroke-width="1"/><text x="30" y="200" class="day" fill="red" font-weight="bold">15</text><circle cx="75" cy="194" r="15" fill="none" stroke="black" stroke-width="1"/><text x="75" y="200" class="day" fill="black" font-weight="bold">16</text><circle cx="120" cy="194" r="15" fill="none" stroke="black" stroke-width="1"/><text x="120" y="200" class="day" fill="black" font-weight="bold">17</text><circle cx="165" cy="194" r="15" fill="none" stroke="black" stroke-width="1"/><text x="165" y="200" class="day" fill="black" font-weight="bold">18</text><circle cx="210" cy="194" r="15" fill="none" stroke="black" stroke-width="1"/><text x="210" y="200" class="day" fill="black" font-weight="bold">19</text><circle cx="255" cy="194" r="15" fill="none" stroke="black" stroke-width="1"/><text x="255" y="200" class="day" fill="black" font-weight="bold">20</text><circle cx="300" cy="194" r="15" fill="none" stroke="black" stroke-width="1"/><text x="300" y="200" class="day" fill="black" font-weight="bold">21</text><circle cx="30" cy="234" r="15" fill="none" stroke="black" stroke-width="1"/><text x="30" y="240" class="day" fill="red" font-weight="bold">22</text><circle cx="75" cy="234" r="15" fill="none" stroke="black" stroke-width="1"/><text x="75" y="240" class="day" fill="black" font-weight="bold">23</text><circle cx="120" cy="234" r="15" fill="none" stroke="black" stroke-width="1"/><text x="120" y="240" class="day" fill="black" font-weight="bold">24</text><circle cx="165" cy="234" r="15" fill="none" stroke="black" stroke-width="1"/><text x="165" y="240" class="day" fill="black" font-weight="bold">25</text><circle cx="210" cy="234" r="15" fill="none" stroke="black" stroke-width="1"/><text x="210" y="240" class="day" fill="black" font-weight="bold">26</text><circle cx="255" cy="234" r="15" fill="none" stroke="black" stroke-width="1"/><text x="255" y="240" class="day" fill="black" font-weight="bold">27</text><circle cx="300" cy="234" r="15" fill="none" stroke="black" stroke-width="1"/><text x="300" y="240" class="day" fill="black" font-weight="bold">28</text><circle cx="30" cy="274" r="15" fill="none" stroke="black" stroke-width="1"/><text x="30" y="280" class="day" fill="red" font-weight="bold">29</text><circle cx="75" cy="274" r="15" fill="none" stroke="black" stroke-width="1"/><text x="75" y="280" class="day" fill="black" font-weight="bold">30</text><circle cx="120" cy="274" r="15" fill="none" stroke="black" stroke-width="1"/><text x="120" y="280" class="day" fill="black" font-weight="bold">31</text></svg><svg x="710" y="520"><rect x="10" y="10" width="310" height="45" rx="10" ry="10" fill="lightblue" />
  <text x="170" y="40" class="header">June 2023</text>
  <!-- Days of the week -->
  <text font-family="sans-serif" text-anchor="middle" x="30" y="80" font-size="12px" fill="red">Sun</text>
  <text font-family="sans-serif" text-anchor="middle" x="75" y="80"  font-size="12px">Mon</text>
  <text font-family="sans-serif" text-anchor="middle" x="120" y="80" font-size="12px">Tue</text>
  <text font-family="sans-serif" text-anchor="middle" x="165" y="80" font-size="12px">Wed</text>
  <text font-family="sans-serif" text-anchor="middle" x="210" y="80"  font-size="12px">Thu</text>
  <text font-family="sans-serif" text-anchor="middle" x="255" y="80"  font-size="12px">Fri</text>
  <text font-family="sans-serif" text-anchor="middle" x="300" y="80"  font-size="12px">Sat</text><circle cx="165" cy="114" r="15" fill="none" stroke="black" stroke-width="1"/><text x="165" y="120" class="day" fill="black" font-weight="bold">1</text><circle cx="210" cy="114" r="15" fill="none" stroke="black" stroke-width="1"/><text x="210" y="120" class="day" fill="black" font-weight="bold">2</text><circle cx="255" cy="114" r="15" fill="none" stroke="black" stroke-width="1"/><text x="255" y="120" class="day" fill="black" font-weight="bold">3</text><circle cx="300" cy="114" r="15" fill="none" stroke="black" stroke-width="1"/><text x="300" y="120" class="day" fill="black" font-weight="bold">4</text><circle cx="30" cy="154" r="15" fill="none" stroke="black" stroke-width="1"/><text x="30" y="160" class="day" fill="red" font-weight="bold">5</text><circle cx="75" cy="154" r="15" fill="none" stroke="black" stroke-width="1"/><text x="75" y="160" class="day" fill="black" font-weight="bold">6</text><circle cx="120" cy="154" r="15" fill="none" stroke="black" stroke-width="1"/><text x="120" y="160" class="day" fill="black" font-weight="bold">7</text><circle cx="165" cy="154" r="15" fill="none" stroke="black" stroke-width="1"/><text x="165" y="160" class="day" fill="black" font-weight="bold">8</text><circle cx="210" cy="154" r="15" fill="none" stroke="black" stroke-width="1"/><text x="210" y="160" class="day" fill="black" font-weight="bold">9</text><circle cx="255" cy="154" r="15" fill="none" stroke="black" stroke-width="1"/><text x="255" y="160" class="day" fill="black" font-weight="bold">10</text><circle cx="300" cy="154" r="15" fill="none" stroke="black" stroke-width="1"/><text x="300" y="160" class="day" fill="black" font-weight="bold">11</text><circle cx="30" cy="194" r="15" fill="none" stroke="black" stroke-width="1"/><text x="30" y="200" class="day" fill="red" font-weight="bold">12</text><circle cx="75" cy="194" r="15" fill="none" stroke="black" stroke-width="1"/><text x="75" y="200" class="day" fill="black" font-weight="bold">13</text><circle cx="120" cy="194" r="15" fill="none" stroke="black" stroke-width="1"/><text x="120" y="200" class="day" fill="black" font-weight="bold">14</text><circle cx="165" cy="194" r="15" fill="none" stroke="black" stroke-width="1"/><text x="165" y="200" class="day" fill="black" font-weight="bold">15</text><circle cx="210" cy="194" r="15" fill="none" stroke="black" stroke-width="1"/><text x="210" y="200" class="day" fill="black" font-weight="bold">16</text><circle cx="255" cy="194" r="15" fill="none" stroke="black" stroke-width="1"/><text x="255" y="200" class="day" fill="black" font-weight="bold">17</text><circle cx="300" cy="194" r="15" fill="none" stroke="black" stroke-width="1"/><text x="300" y="200" class="day" fill="black" font-weight="bold">18</text><circle cx="30" cy="234" r="15" fill="none" stroke="black" stroke-width="1"/><text x="30" y="240" class="day" fill="red" font-weight="bold">19</text><circle cx="75" cy="234" r="15" fill="none" stroke="black" stroke-width="1"/><text x="75" y="240" class="day" fill="black" font-weight="bold">20</text><circle cx="120" cy="234" r="15" fill="none" stroke="black" stroke-width="1"/><text x="120" y="240" class="day" fill="black" font-weight="bold">21</text><circle cx="165" cy="234" r="15" fill="none" stroke="black" stroke-width="1"/><text x="165" y="240" class="day" fill="black" font-weight="bold">22</text><circle cx="210" cy="234" r="15" fill="none" stroke="black" stroke-width="1"/><text x="210" y="240" class="day" fill="black" font-weight="bold">23</text><circle cx="255" cy="234" r="15" fill="none" stroke="black" stroke-width="1"/><text x="255" y="240" class="day" fill="black" font-weight="bold">24</text><circle cx="300" cy="234" r="15" fill="none" stroke="black" stroke-width="1"/><text x="300" y="240" class="day" fill="black" font-weight="bold">25</text><circle cx="30" cy="274" r="15" fill="none" stroke="black" stroke-width="1"/><text x="30" y="280" class="day" fill="red" font-weight="bold">26</text><circle cx="75" cy="274" r="15" fill="none" stroke="black" stroke-width="1"/><text x="75" y="280" class="day" fill="black" font-weight="bold">27</text><circle cx="120" cy="274" r="15" fill="none" stroke="black" stroke-width="1"/><text x="120" y="280" class="day" fill="black" font-weight="bold">28</text><circle cx="165" cy="274" r="15" fill="none" stroke="black" stroke-width="1"/><text x="165" y="280" class="day" fill="black" font-weight="bold">29</text><circle cx="210" cy="274" r="15" fill="none" stroke="black" stroke-width="1"/><text x="210" y="280" class="day" fill="black" font-weight="bold">30</text></svg>
  <svg x="50" y="880"> 
  <rect x="0" y="0" width="240" height="330" rx="10" ry="10" fill="lightblue"/>
  <text x="125" y="35" class="tile" font-weight="bold">Notes</text>
  <circle cx="40" cy="75" r="12" fill="red"/>
    <text x="160" y="80" class="legend" fill="red">Something 1</text><circle cx="40" cy="115" r="12" fill="blue"/>
    <text x="160" y="120" class="legend" fill="blue">Something 2</text><circle cx="40" cy="155" r="12" fill="yellow"/>
    <text x="160" y="160" class="legend" fill="yellow">Something 3</text></svg>
  <svg x="375" y="880"> 
  <rect x="0" y="0" width="300" height="330" rx="10" ry="10" fill="lightblue"/>
  <text x="155" y="35" class="tile" font-weight="bold">Holidays</text>
  
    <text x="50" y="80" class="date">January 1</text>
    <text x="280" y="80" class="holiday" text-anchor="end">Holi</text>
    
    <text x="50" y="100" class="date">March 24</text>
    <text x="280" y="100" class="holiday" text-anchor="end">Holi1</text>
    
    <text x="50" y="120" class="date">June 15</text>
    <text x="280" y="120" class="holiday" text-anchor="end">Holi2</text>
    
    <text x="50" y="140" class="date">May 12</text>
    <text x="280" y="140" class="holiday" text-anchor="end">Holi3</text>
    </svg>
</svg>
